# xmcd CD database file
#
# Track frame offsets:
#	150
#	14212
#	28861
#	43232
#	57606
#	71324
#	86025
#	99947
#	114354
#	128784
#	143681
#	155989
#	171554
#	185792
#	200755
#	215933
#	232514
#	247140
#	261406
#	276812
#	290908
#
# Disc length: 4090 seconds
#
# Revision: 1
# Processed by: cddbd v1.5.2PL0 Copyright (c) Steve Scherf et al.
# Submitted via: CDex 1.70beta2
#
DISCID=5a0ff815
DTITLE=Louis Armstrong - The Ultimate Jazz Archive Set 03
DYEAR=1931
DGENRE=Jazz
TTITLE0=Cornet Chop Suey
TTITLE1=Don't Forget To Mess Around
TTITLE2=Skid-Dat-De-Dat
TTITLE3=Twefth Street Rag
TTITLE4=Struttin' With Some Barbecue
TTITLE5=Wild Man Blues
TTITLE6=Fireworks
TTITLE7=A Monday Date
TTITLE8=West End Blues
TTITLE9=Basin Street Blues
TTITLE10=Weather Bird
TTITLE11=Mahagony Hall Stomp
TTITLE12=(What Did I Do To Be So) Black And Blue
TTITLE13=Dear Old Southland
TTITLE14=Dinah
TTITLE15=If I Could Be With You One Hour Tonight
TTITLE16=Tiger Rag
TTITLE17=Them There Eyes
TTITLE18=Shine
TTITLE19=Lazy River
TTITLE20=Star Dust
EXTD=YEAR: 1931
EXTT0=
EXTT1=
EXTT2=
EXTT3=
EXTT4=
EXTT5=
EXTT6=
EXTT7=
EXTT8=
EXTT9=
EXTT10=
EXTT11=
EXTT12=
EXTT13=
EXTT14=
EXTT15=
EXTT16=
EXTT17=
EXTT18=
EXTT19=
EXTT20=
PLAYORDER=
